<svg width="20" height="20" viewBox="0 0 20 20" fill="none" xmlns="http://www.w3.org/2000/svg">
<path fill-rule="evenodd" clip-rule="evenodd" d="M10.0002 2.5C5.85803 2.5 2.50016 5.85787 2.50016 10C2.50016 14.1421 5.85803 17.5 10.0002 17.5C14.1423 17.5 17.5002 14.1421 17.5002 10C17.5002 5.85787 14.1423 2.5 10.0002 2.5ZM0.833496 10C0.833496 4.93739 4.93755 0.833336 10.0002 0.833336C15.0628 0.833336 19.1668 4.93739 19.1668 10C19.1668 15.0626 15.0628 19.1667 10.0002 19.1667C4.93755 19.1667 0.833496 15.0626 0.833496 10Z" fill="black"/>
<path fill-rule="evenodd" clip-rule="evenodd" d="M3.49416 3.494C3.8196 3.16856 4.34723 3.16856 4.67267 3.494L16.506 15.3273C16.8314 15.6528 16.8314 16.1804 16.506 16.5058C16.1806 16.8313 15.6529 16.8313 15.3275 16.5058L3.49416 4.67251C3.16872 4.34707 3.16872 3.81944 3.49416 3.494Z" fill="black"/>
</svg>
