<svg width="18" height="20" viewBox="0 0 18 20" fill="none" xmlns="http://www.w3.org/2000/svg">
<path fill-rule="evenodd" clip-rule="evenodd" d="M5.1665 0.833313C5.62674 0.833313 5.99984 1.20641 5.99984 1.66665V4.99998C5.99984 5.46022 5.62674 5.83331 5.1665 5.83331C4.70627 5.83331 4.33317 5.46022 4.33317 4.99998V1.66665C4.33317 1.20641 4.70627 0.833313 5.1665 0.833313Z" fill="#14161B"/>
<path fill-rule="evenodd" clip-rule="evenodd" d="M11.8332 0.833313C12.2934 0.833313 12.6665 1.20641 12.6665 1.66665V4.99998C12.6665 5.46022 12.2934 5.83331 11.8332 5.83331C11.3729 5.83331 10.9998 5.46022 10.9998 4.99998V1.66665C10.9998 1.20641 11.3729 0.833313 11.8332 0.833313Z" fill="#14161B"/>
<path fill-rule="evenodd" clip-rule="evenodd" d="M0.898737 3.23221C1.36758 2.76337 2.00346 2.49998 2.6665 2.49998H14.3332C14.9962 2.49998 15.6321 2.76337 16.1009 3.23221C16.5698 3.70105 16.8332 4.33694 16.8332 4.99998V10.8333C16.8332 11.2935 16.4601 11.6666 15.9998 11.6666C15.5396 11.6666 15.1665 11.2935 15.1665 10.8333V4.99998C15.1665 4.77897 15.0787 4.567 14.9224 4.41072C14.7661 4.25444 14.5542 4.16665 14.3332 4.16665H2.6665C2.44549 4.16665 2.23353 4.25444 2.07725 4.41072C1.92097 4.567 1.83317 4.77897 1.83317 4.99998V16.6666C1.83317 16.8877 1.92097 17.0996 2.07725 17.2559C2.23353 17.4122 2.44549 17.5 2.6665 17.5H9.33317C9.79341 17.5 10.1665 17.8731 10.1665 18.3333C10.1665 18.7935 9.79341 19.1666 9.33317 19.1666H2.6665C2.00346 19.1666 1.36758 18.9033 0.898737 18.4344C0.429896 17.9656 0.166504 17.3297 0.166504 16.6666V4.99998C0.166504 4.33694 0.429896 3.70105 0.898737 3.23221Z" fill="#14161B"/>
<path fill-rule="evenodd" clip-rule="evenodd" d="M0.166504 8.33331C0.166504 7.87308 0.5396 7.49998 0.999837 7.49998H15.9998C16.4601 7.49998 16.8332 7.87308 16.8332 8.33331C16.8332 8.79355 16.4601 9.16665 15.9998 9.16665H0.999837C0.5396 9.16665 0.166504 8.79355 0.166504 8.33331Z" fill="#14161B"/>
<path fill-rule="evenodd" clip-rule="evenodd" d="M10.9998 15.8333C10.9998 15.3731 11.3729 15 11.8332 15H16.8332C17.2934 15 17.6665 15.3731 17.6665 15.8333C17.6665 16.2935 17.2934 16.6666 16.8332 16.6666H11.8332C11.3729 16.6666 10.9998 16.2935 10.9998 15.8333Z" fill="#14161B"/>
<path fill-rule="evenodd" clip-rule="evenodd" d="M14.3332 12.5C14.7934 12.5 15.1665 12.8731 15.1665 13.3333V18.3333C15.1665 18.7935 14.7934 19.1666 14.3332 19.1666C13.8729 19.1666 13.4998 18.7935 13.4998 18.3333V13.3333C13.4998 12.8731 13.8729 12.5 14.3332 12.5Z" fill="#14161B"/>
</svg>
