<svg width="20" height="20" viewBox="0 0 20 20" fill="none" xmlns="http://www.w3.org/2000/svg">
<path fill-rule="evenodd" clip-rule="evenodd" d="M10.0002 2.49992C5.85803 2.49992 2.50016 5.85778 2.50016 9.99992C2.50016 14.1421 5.85803 17.4999 10.0002 17.4999C14.1423 17.4999 17.5002 14.1421 17.5002 9.99992C17.5002 5.85778 14.1423 2.49992 10.0002 2.49992ZM0.833496 9.99992C0.833496 4.93731 4.93755 0.833252 10.0002 0.833252C15.0628 0.833252 19.1668 4.93731 19.1668 9.99992C19.1668 15.0625 15.0628 19.1666 10.0002 19.1666C4.93755 19.1666 0.833496 15.0625 0.833496 9.99992Z" fill="#14161B"/>
<path fill-rule="evenodd" clip-rule="evenodd" d="M10.0002 4.16658C10.4604 4.16658 10.8335 4.53968 10.8335 4.99992V9.99992C10.8335 10.4602 10.4604 10.8333 10.0002 10.8333H6.25016C5.78993 10.8333 5.41683 10.4602 5.41683 9.99992C5.41683 9.53968 5.78993 9.16658 6.25016 9.16658H9.16683V4.99992C9.16683 4.53968 9.53992 4.16658 10.0002 4.16658Z" fill="#14161B"/>
</svg>
