<svg width="20" height="15" viewBox="0 0 20 15" fill="none" xmlns="http://www.w3.org/2000/svg">
<path fill-rule="evenodd" clip-rule="evenodd" d="M3.33335 1.66667C2.87312 1.66667 2.50002 2.03976 2.50002 2.5V12.5C2.50002 12.9602 2.87312 13.3333 3.33335 13.3333H16.6667C17.1269 13.3333 17.5 12.9602 17.5 12.5V2.5C17.5 2.03976 17.1269 1.66667 16.6667 1.66667H3.33335ZM0.833354 2.5C0.833354 1.11929 1.95264 0 3.33335 0H16.6667C18.0474 0 19.1667 1.11929 19.1667 2.5V12.5C19.1667 13.8807 18.0474 15 16.6667 15H3.33335C1.95264 15 0.833354 13.8807 0.833354 12.5V2.5Z" fill="#14161B"/>
<path fill-rule="evenodd" clip-rule="evenodd" d="M0.963349 2.8863C1.21019 2.49785 1.72519 2.38306 2.11363 2.62989L9.58597 7.3782C9.71021 7.45556 9.85364 7.49658 10 7.49658C10.1464 7.49658 10.2898 7.45557 10.414 7.37823L17.8864 2.62989C18.2749 2.38306 18.7899 2.49785 19.0367 2.8863C19.2835 3.27474 19.1687 3.78974 18.7803 4.03658L11.3053 8.78658C11.3038 8.78753 11.3023 8.78847 11.3008 8.78942C10.9109 9.03369 10.4601 9.16324 10 9.16324C9.53993 9.16324 9.08914 9.03369 8.69925 8.78942C8.69775 8.78847 8.69625 8.78753 8.69475 8.78658L1.21975 4.03658C0.831307 3.78974 0.716511 3.27474 0.963349 2.8863Z" fill="#14161B"/>
</svg>
