<svg width="18" height="20" viewBox="0 0 18 20" fill="none" xmlns="http://www.w3.org/2000/svg">
<path fill-rule="evenodd" clip-rule="evenodd" d="M3.16667 9.99998C2.70643 9.99998 2.33334 10.3731 2.33334 10.8333V16.6666C2.33334 17.1269 2.70643 17.5 3.16667 17.5H14.8333C15.2936 17.5 15.6667 17.1269 15.6667 16.6666V10.8333C15.6667 10.3731 15.2936 9.99998 14.8333 9.99998H3.16667ZM0.666672 10.8333C0.666672 9.4526 1.78596 8.33331 3.16667 8.33331H14.8333C16.2141 8.33331 17.3333 9.4526 17.3333 10.8333V16.6666C17.3333 18.0474 16.2141 19.1666 14.8333 19.1666H3.16667C1.78596 19.1666 0.666672 18.0474 0.666672 16.6666V10.8333Z" fill="#14161B"/>
<path fill-rule="evenodd" clip-rule="evenodd" d="M9.00001 2.49998C8.11595 2.49998 7.2681 2.85117 6.64298 3.47629C6.01786 4.10141 5.66667 4.94926 5.66667 5.83331V9.16665C5.66667 9.62688 5.29358 9.99998 4.83334 9.99998C4.3731 9.99998 4.00001 9.62688 4.00001 9.16665V5.83331C4.00001 4.50723 4.52679 3.23546 5.46447 2.29778C6.40215 1.3601 7.67392 0.833313 9.00001 0.833313C10.3261 0.833313 11.5979 1.3601 12.5355 2.29778C13.4732 3.23546 14 4.50723 14 5.83331V9.16665C14 9.62688 13.6269 9.99998 13.1667 9.99998C12.7064 9.99998 12.3333 9.62688 12.3333 9.16665V5.83331C12.3333 4.94926 11.9821 4.10141 11.357 3.47629C10.7319 2.85117 9.88406 2.49998 9.00001 2.49998Z" fill="#14161B"/>
</svg>
