<svg width="178" height="42" viewBox="0 0 178 42" fill="none" xmlns="http://www.w3.org/2000/svg">
<path d="M72.5242 0.5H67.2734V32.0683H72.5242V0.5Z" fill="white"/>
<path d="M12.7147 32.191C12.3613 32.191 12.0129 32.1762 11.6645 32.1468C9.50533 31.9701 7.49336 31.2537 5.77583 30.1299C4.29384 29.1681 3.02777 27.902 2.06104 26.42C0.942193 24.7025 0.220828 22.6954 0.0441671 20.5313C0.0147237 20.1829 0 19.8345 0 19.4812C0 19.1279 0.0147237 18.7795 0.0441671 18.4311C0.372952 14.3973 2.58121 10.8984 5.80036 8.81286C6.01628 8.67055 6.23711 8.53805 6.46775 8.41046C6.52663 8.38102 6.58552 8.34667 6.6395 8.31722C7.00264 8.11603 7.38049 7.93446 7.77307 7.77252C8.03316 7.65965 8.29815 7.55661 8.56805 7.46337C8.88211 7.36032 9.19617 7.26217 9.52005 7.17875C9.6231 7.15421 9.73106 7.12477 9.83902 7.10023C9.89791 7.08551 9.9568 7.07079 10.0108 7.06097C10.1089 7.04134 10.212 7.0168 10.315 6.99717C10.4132 6.97755 10.5064 6.96283 10.6046 6.94811C10.6929 6.93338 10.7763 6.91866 10.8695 6.90394C10.899 6.89904 10.9284 6.89413 10.9579 6.89413C11.0707 6.8745 11.1885 6.86468 11.3063 6.84996C11.4241 6.83524 11.5467 6.82542 11.6694 6.81561C11.7578 6.80579 11.8412 6.80089 11.9295 6.79598C12.008 6.78617 12.0914 6.78617 12.17 6.78126C12.219 6.78126 12.273 6.77635 12.3221 6.77635C12.4546 6.77144 12.5871 6.76654 12.7196 6.76654H17.5581V12.0173H12.7196C12.3663 12.0173 12.0178 12.0418 11.6694 12.0958C10.5996 12.243 9.57894 12.6258 8.66619 13.2147C6.82598 14.4022 5.63352 16.3062 5.33417 18.4311C5.2851 18.7746 5.26056 19.1279 5.26056 19.4812C5.26056 19.8345 5.2851 20.1878 5.33908 20.5313C5.80036 23.8045 8.39629 26.4004 11.6743 26.8617C12.0178 26.9108 12.3663 26.9402 12.7245 26.9402C13.0827 26.9402 13.4311 26.9157 13.7746 26.8666C15.5658 26.6114 17.2048 25.7183 18.3973 24.3247C19.3198 23.2451 19.9136 21.925 20.1099 20.5313C20.159 20.1829 20.1884 19.8345 20.1884 19.4812V14.6427H25.4391V19.5646C25.4391 19.8885 25.4244 20.2124 25.395 20.5313C25.1692 23.2696 24.0749 25.7625 22.3868 27.7352C20.2718 30.2133 17.2195 31.8671 13.7746 32.1468C13.4262 32.1713 13.0778 32.191 12.7245 32.191H12.7147Z" fill="white"/>
<path d="M25.3801 0.5H20.1294V31.8475H25.3801V0.5Z" fill="white"/>
<path d="M34.6648 6.77145H29.4141V12.0222H34.6648V6.77145Z" fill="white"/>
<path d="M34.6648 14.6427H29.4141V32.0683H34.6648V14.6427Z" fill="white"/>
<path d="M177.019 26.9451H171.769V32.1959H177.019V26.9451Z" fill="#9C8CFF"/>
<path d="M151.526 19.4812C151.526 19.1279 151.541 18.7795 151.57 18.4311C151.747 16.2719 152.463 14.2599 153.587 12.5424C154.549 11.0604 155.815 9.79432 157.297 8.8276C159.014 7.70874 161.021 6.98738 163.185 6.81072C163.534 6.78128 163.882 6.76656 164.236 6.76656C164.589 6.76656 164.937 6.78128 165.286 6.81072C169.32 7.1395 172.818 9.34776 174.904 12.5669C175.046 12.7828 175.179 13.0037 175.306 13.2343C175.336 13.2932 175.37 13.3521 175.4 13.4061C175.601 13.7692 175.782 14.147 175.944 14.5396C176.057 14.7997 176.16 15.0647 176.253 15.3346C176.357 15.6487 176.455 15.9627 176.538 16.2866C176.563 16.3897 176.592 16.4976 176.617 16.6056C176.631 16.6645 176.646 16.7233 176.656 16.7773C176.675 16.8755 176.7 16.9785 176.72 17.0816C176.739 17.1797 176.754 17.273 176.769 17.3711C176.783 17.4594 176.798 17.5429 176.813 17.6361C176.818 17.6655 176.823 17.695 176.823 17.7244C176.842 17.8373 176.852 17.9551 176.867 18.0728C176.882 18.1906 176.891 18.3133 176.901 18.436C176.911 18.5243 176.916 18.6077 176.921 18.6961C176.931 18.7746 176.931 18.858 176.936 18.9365C176.936 18.9856 176.94 19.0396 176.94 19.0886C176.945 19.2211 176.95 19.3536 176.95 19.4861V24.3247H171.7V19.4861C171.7 19.1328 171.675 18.7844 171.621 18.436C171.474 17.3662 171.091 16.3455 170.502 15.4327C169.315 13.5925 167.411 12.4001 165.286 12.1007C164.942 12.0517 164.589 12.0271 164.236 12.0271C163.882 12.0271 163.529 12.0517 163.185 12.1056C159.912 12.5669 157.316 15.1628 156.855 18.4409C156.806 18.7844 156.777 19.1328 156.777 19.491C156.777 19.8493 156.801 20.1977 156.85 20.5412C157.105 22.3323 157.999 23.9713 159.392 25.1638C160.472 26.0864 161.792 26.6801 163.185 26.8764C163.534 26.9255 163.882 26.9549 164.236 26.9549H169.074V32.2057H164.152C163.828 32.2057 163.504 32.191 163.185 32.1615C160.447 31.9358 157.954 30.8415 155.982 29.1534C153.503 27.0384 151.85 23.9861 151.57 20.5412C151.546 20.1928 151.526 19.8444 151.526 19.491V19.4812Z" fill="#9C8CFF"/>
<path d="M136.53 6.7718H131.279V12.0225H136.53V6.7718Z" fill="#44D8B1"/>
<path d="M156.772 19.4812C156.772 19.8346 156.757 20.183 156.728 20.5314C156.551 22.6906 155.835 24.7026 154.711 26.4201C153.749 27.9021 152.483 29.1681 151.001 30.1349C149.284 31.2537 147.277 31.9751 145.112 32.1517C144.764 32.1812 144.416 32.1959 144.062 32.1959C143.709 32.1959 143.361 32.1812 143.012 32.1517C138.978 31.823 135.48 29.6147 133.394 26.3956C133.252 26.1796 133.119 25.9588 132.992 25.7282C132.962 25.6693 132.928 25.6104 132.898 25.5564C132.697 25.1933 132.516 24.8154 132.354 24.4228C132.241 24.1628 132.138 23.8978 132.044 23.6279C131.941 23.3138 131.843 22.9997 131.76 22.6759C131.735 22.5728 131.706 22.4649 131.681 22.3569C131.667 22.298 131.652 22.2391 131.642 22.1851C131.622 22.087 131.598 21.9839 131.578 21.8809C131.559 21.7827 131.544 21.6895 131.529 21.5914C131.515 21.503 131.5 21.4196 131.485 21.3264C131.48 21.2969 131.475 21.2675 131.475 21.238C131.456 21.1252 131.446 21.0074 131.431 20.8896C131.416 20.7719 131.407 20.6492 131.397 20.5265C131.387 20.4382 131.382 20.3547 131.377 20.2664C131.367 20.1879 131.367 20.1045 131.362 20.026C131.362 19.9769 131.357 19.9229 131.357 19.8738C131.353 19.7413 131.348 19.6088 131.348 19.4763V14.6378H136.598V19.4763C136.598 19.8297 136.623 20.1781 136.677 20.5265C136.824 21.5963 137.207 22.617 137.796 23.5297C138.983 25.3699 140.887 26.5624 143.012 26.8617C143.356 26.9108 143.709 26.9354 144.062 26.9354C144.416 26.9354 144.769 26.9108 145.112 26.8568C148.386 26.3956 150.982 23.7996 151.443 20.5216C151.492 20.1781 151.521 19.8297 151.521 19.4714C151.521 19.1132 151.497 18.7648 151.448 18.4213C151.193 16.6301 150.299 14.9911 148.906 13.7987C147.826 12.8761 146.506 12.2823 145.112 12.086C144.764 12.037 144.416 12.0075 144.062 12.0075H139.224V6.75677H144.146C144.47 6.75677 144.794 6.77149 145.112 6.80094C147.851 7.02667 150.344 8.12099 152.316 9.80908C154.794 11.9241 156.448 14.9764 156.728 18.4213C156.752 18.7697 156.772 19.1181 156.772 19.4714V19.4812Z" fill="#44D8B1"/>
<path d="M87.2852 6.88921C80.2972 6.88921 74.6343 12.5522 74.6343 19.5401C74.6343 26.528 80.2972 32.191 87.2852 32.191C94.2731 32.191 99.936 26.528 99.936 19.5401C99.936 12.5522 94.2731 6.88921 87.2852 6.88921ZM87.2852 26.9746C83.1778 26.9746 79.8507 23.6474 79.8507 19.5401C79.8507 15.4327 83.1778 12.1056 87.2852 12.1056C91.3925 12.1056 94.7196 15.4327 94.7196 19.5401C94.7196 23.6474 91.3925 26.9746 87.2852 26.9746Z" fill="white"/>
<path d="M127.475 15.3346H122.225V36.2247H127.475V15.3346Z" fill="white"/>
<path d="M111.689 36.2492H127.471C127.471 39.1494 125.12 41.5 122.22 41.5H111.689V36.2492Z" fill="white"/>
<path d="M114.766 32.191C114.413 32.191 114.064 32.1762 113.716 32.1468C111.557 31.9701 109.545 31.2537 107.827 30.1299C106.345 29.1681 105.079 27.902 104.112 26.42C102.993 24.7025 102.272 22.6954 102.095 20.5313C102.066 20.1829 102.051 19.8345 102.051 19.4812C102.051 19.1279 102.066 18.7795 102.095 18.4311C102.424 14.3973 104.632 10.8984 107.852 8.81286C108.068 8.67055 108.288 8.53805 108.519 8.41046C108.578 8.38102 108.637 8.34667 108.691 8.31722C109.054 8.11603 109.432 7.93446 109.824 7.77252C110.084 7.65965 110.349 7.55661 110.619 7.46337C110.933 7.36032 111.247 7.26217 111.571 7.17875C111.674 7.15421 111.782 7.12477 111.89 7.10023C111.949 7.08551 112.008 7.07079 112.062 7.06097C112.16 7.04134 112.263 7.0168 112.366 6.99717C112.464 6.97755 112.558 6.96283 112.656 6.94811C112.744 6.93338 112.828 6.91866 112.921 6.90394C112.95 6.89904 112.98 6.89413 113.009 6.89413C113.122 6.8745 113.24 6.86468 113.358 6.84996C113.475 6.83524 113.598 6.82542 113.721 6.81561C113.809 6.80579 113.892 6.80089 113.981 6.79598C114.059 6.78617 114.143 6.78617 114.221 6.78126C114.27 6.78126 114.324 6.77635 114.373 6.77635C114.506 6.77144 114.638 6.76654 114.771 6.76654H119.609V12.0173H114.771C114.418 12.0173 114.069 12.0418 113.721 12.0958C112.651 12.243 111.63 12.6258 110.717 13.2147C108.877 14.4022 107.685 16.3062 107.385 18.4311C107.336 18.7746 107.312 19.1279 107.312 19.4812C107.312 19.8345 107.336 20.1878 107.39 20.5313C107.852 23.8045 110.448 26.4004 113.726 26.8617C114.069 26.9108 114.418 26.9402 114.776 26.9402C115.134 26.9402 115.482 26.9157 115.826 26.8666C117.617 26.6114 119.256 25.7183 120.449 24.3247C121.371 23.2451 121.965 21.925 122.161 20.5313C122.21 20.1829 122.24 19.8345 122.24 19.4812V14.6427H127.49V19.5646C127.49 19.8885 127.476 20.2124 127.446 20.5313C127.221 23.2696 126.126 25.7625 124.438 27.7352C122.323 30.2133 119.271 31.8671 115.826 32.1468C115.477 32.1713 115.129 32.191 114.776 32.191H114.766Z" fill="white"/>
<path d="M50.6624 32.191C50.3091 32.191 49.9607 32.1762 49.6123 32.1468C47.4531 31.9701 45.4411 31.2537 43.7236 30.1299C42.2416 29.1681 40.9755 27.902 40.0088 26.42C38.8899 24.7025 38.1686 22.6954 37.9919 20.5313C37.9625 20.1829 37.9478 19.8345 37.9478 19.4812C37.9478 19.1279 37.9625 18.7795 37.9919 18.4311C38.3207 14.3973 40.529 10.8984 43.7481 8.81286C43.964 8.67055 44.1849 8.53805 44.4155 8.41046C44.4744 8.38102 44.5333 8.34667 44.5873 8.31722C44.9504 8.11603 45.3282 7.93446 45.7208 7.77252C45.9809 7.65965 46.2459 7.55661 46.5158 7.46337C46.8299 7.36032 47.1439 7.26217 47.4678 7.17875C47.5709 7.15421 47.6788 7.12477 47.7868 7.10023C47.8457 7.08551 47.9045 7.07079 47.9585 7.06097C48.0567 7.04134 48.1597 7.0168 48.2628 6.99717C48.3609 6.97755 48.4542 6.96283 48.5523 6.94811C48.6406 6.93338 48.7241 6.91866 48.8173 6.90394C48.8467 6.89904 48.8762 6.89413 48.9056 6.89413C49.0185 6.8745 49.1363 6.86468 49.254 6.84996C49.3718 6.83524 49.4945 6.82542 49.6172 6.81561C49.7055 6.80579 49.7889 6.80089 49.8773 6.79598C49.9558 6.78617 50.0392 6.78617 50.1177 6.78126C50.1668 6.78126 50.2208 6.77635 50.2698 6.77635C50.4023 6.77144 50.5348 6.76654 50.6673 6.76654H55.5059V12.0173H50.6673C50.314 12.0173 49.9656 12.0418 49.6172 12.0958C48.5474 12.243 47.5267 12.6258 46.6139 13.2147C44.7737 14.4022 43.5813 16.3062 43.2819 18.4311C43.2329 18.7746 43.2083 19.1279 43.2083 19.4812C43.2083 19.8345 43.2329 20.1878 43.2868 20.5313C43.7481 23.8045 46.344 26.4004 49.6221 26.8617C49.9656 26.9108 50.314 26.9402 50.6722 26.9402C51.0305 26.9402 51.3789 26.9157 51.7224 26.8666C53.5135 26.6114 55.1525 25.7183 56.345 24.3247C57.2676 23.2451 57.8613 21.925 58.0576 20.5313C58.1067 20.1829 58.1361 19.8345 58.1361 19.4812V14.6427H63.3869V19.5646C63.3869 19.8885 63.3722 20.2124 63.3427 20.5313C63.117 23.2696 62.0227 25.7625 60.3346 27.7352C58.2196 30.2133 55.1673 31.8671 51.7224 32.1468C51.374 32.1713 51.0256 32.191 50.6722 32.191H50.6624Z" fill="white"/>
<path d="M63.3674 16.0216H58.1167V32.0634H63.3674V16.0216Z" fill="white"/>
</svg>
