<svg width="16" height="14" viewBox="0 0 16 14" fill="none" xmlns="http://www.w3.org/2000/svg">
<path fill-rule="evenodd" clip-rule="evenodd" d="M1.64281 9.30966C2.26794 8.68453 3.11578 8.33334 3.99984 8.33334H7.99984C8.88389 8.33334 9.73174 8.68453 10.3569 9.30966C10.982 9.93478 11.3332 10.7826 11.3332 11.6667V13C11.3332 13.3682 11.0347 13.6667 10.6665 13.6667C10.2983 13.6667 9.99984 13.3682 9.99984 13V11.6667C9.99984 11.1362 9.78912 10.6275 9.41405 10.2525C9.03898 9.87739 8.53027 9.66668 7.99984 9.66668H3.99984C3.4694 9.66668 2.9607 9.87739 2.58562 10.2525C2.21055 10.6275 1.99984 11.1362 1.99984 11.6667V13C1.99984 13.3682 1.70136 13.6667 1.33317 13.6667C0.964981 13.6667 0.666504 13.3682 0.666504 13V11.6667C0.666504 10.7826 1.01769 9.93478 1.64281 9.30966Z" fill="#14161B"/>
<path fill-rule="evenodd" clip-rule="evenodd" d="M5.99984 1.66668C4.89527 1.66668 3.99984 2.56211 3.99984 3.66668C3.99984 4.77125 4.89527 5.66668 5.99984 5.66668C7.10441 5.66668 7.99984 4.77125 7.99984 3.66668C7.99984 2.56211 7.10441 1.66668 5.99984 1.66668ZM2.6665 3.66668C2.6665 1.82573 4.15889 0.333344 5.99984 0.333344C7.84079 0.333344 9.33317 1.82573 9.33317 3.66668C9.33317 5.50763 7.84079 7.00001 5.99984 7.00001C4.15889 7.00001 2.6665 5.50763 2.6665 3.66668Z" fill="#14161B"/>
<path fill-rule="evenodd" clip-rule="evenodd" d="M12.021 8.92009C12.1131 8.5636 12.4767 8.34922 12.8332 8.44126C13.5483 8.6259 14.1818 9.04281 14.6343 9.62653C15.0868 10.2102 15.3326 10.9277 15.3332 11.6663V13.0001C15.3332 13.3683 15.0347 13.6668 14.6665 13.6668C14.2983 13.6668 13.9998 13.3683 13.9998 13.0001V11.667C13.9994 11.224 13.852 10.7936 13.5805 10.4434C13.309 10.0932 12.9289 9.84304 12.4998 9.73226C12.1433 9.64021 11.929 9.27659 12.021 8.92009Z" fill="#14161B"/>
<path fill-rule="evenodd" clip-rule="evenodd" d="M10.0207 0.9214C10.112 0.564716 10.4752 0.3496 10.8319 0.440926C11.5489 0.62451 12.1844 1.04151 12.6382 1.62618C13.0921 2.21086 13.3384 2.92995 13.3384 3.67009C13.3384 4.41023 13.0921 5.12933 12.6382 5.714C12.1844 6.29867 11.5489 6.71567 10.8319 6.89926C10.4752 6.99058 10.112 6.77547 10.0207 6.41879C9.92934 6.0621 10.1445 5.69892 10.5011 5.60759C10.9313 5.49744 11.3127 5.24724 11.585 4.89644C11.8573 4.54563 12.0051 4.11418 12.0051 3.67009C12.0051 3.22601 11.8573 2.79455 11.585 2.44375C11.3127 2.09294 10.9313 1.84274 10.5011 1.73259C10.1445 1.64127 9.92934 1.27808 10.0207 0.9214Z" fill="#14161B"/>
</svg>
