<svg width="12" height="14" viewBox="0 0 12 14" fill="none" xmlns="http://www.w3.org/2000/svg">
<path fill-rule="evenodd" clip-rule="evenodd" d="M6 1.66668C4.52724 1.66668 3.33333 2.86058 3.33333 4.33334C3.33333 5.8061 4.52724 7.00001 6 7.00001C7.47276 7.00001 8.66667 5.8061 8.66667 4.33334C8.66667 2.86058 7.47276 1.66668 6 1.66668ZM2 4.33334C2 2.1242 3.79086 0.333344 6 0.333344C8.20914 0.333344 10 2.1242 10 4.33334C10 6.54248 8.20914 8.33334 6 8.33334C3.79086 8.33334 2 6.54248 2 4.33334Z" fill="#14161B"/>
<path fill-rule="evenodd" clip-rule="evenodd" d="M1.75736 8.75737C2.88258 7.63215 4.4087 7.00001 6 7.00001C7.5913 7.00001 9.11742 7.63215 10.2426 8.75737C11.3679 9.88259 12 11.4087 12 13C12 13.3682 11.7015 13.6667 11.3333 13.6667C10.9651 13.6667 10.6667 13.3682 10.6667 13C10.6667 11.7623 10.175 10.5753 9.29983 9.70018C8.42466 8.82501 7.23768 8.33334 6 8.33334C4.76232 8.33334 3.57534 8.82501 2.70017 9.70018C1.825 10.5753 1.33333 11.7623 1.33333 13C1.33333 13.3682 1.03486 13.6667 0.666667 13.6667C0.298477 13.6667 0 13.3682 0 13C0 11.4087 0.632141 9.88259 1.75736 8.75737Z" fill="#14161B"/>
</svg>
