<svg width="20" height="20" viewBox="0 0 20 20" fill="none" xmlns="http://www.w3.org/2000/svg">
<path fill-rule="evenodd" clip-rule="evenodd" d="M8.3335 0.833336C8.79373 0.833336 9.16683 1.20643 9.16683 1.66667V4.16667H13.3335C13.7937 4.16667 14.1668 4.53976 14.1668 5C14.1668 5.46024 13.7937 5.83334 13.3335 5.83334H9.16683C8.7248 5.83334 8.30088 5.65774 7.98832 5.34518C7.67576 5.03262 7.50016 4.6087 7.50016 4.16667V1.66667C7.50016 1.20643 7.87326 0.833336 8.3335 0.833336Z" fill="black"/>
<path fill-rule="evenodd" clip-rule="evenodd" d="M7.98832 8.82149C8.30088 8.50893 8.7248 8.33334 9.16683 8.33334H14.1668C14.6089 8.33334 15.0328 8.50893 15.3453 8.82149C15.6579 9.13405 15.8335 9.55798 15.8335 10V15C15.8335 15.4602 15.4604 15.8333 15.0002 15.8333C14.5399 15.8333 14.1668 15.4602 14.1668 15V10H9.16683V15C9.16683 15.4602 8.79373 15.8333 8.3335 15.8333C7.87326 15.8333 7.50016 15.4602 7.50016 15V10C7.50016 9.55797 7.67576 9.13405 7.98832 8.82149Z" fill="black"/>
<path fill-rule="evenodd" clip-rule="evenodd" d="M1.66683 4.16667C2.12707 4.16667 2.50016 4.53976 2.50016 5V16.6667C2.50016 16.8877 2.58796 17.0996 2.74424 17.2559C2.90052 17.4122 3.11248 17.5 3.3335 17.5H15.0002C15.4604 17.5 15.8335 17.8731 15.8335 18.3333C15.8335 18.7936 15.4604 19.1667 15.0002 19.1667H3.3335C2.67045 19.1667 2.03457 18.9033 1.56573 18.4344C1.09689 17.9656 0.833496 17.3297 0.833496 16.6667V5C0.833496 4.53976 1.20659 4.16667 1.66683 4.16667Z" fill="black"/>
<path fill-rule="evenodd" clip-rule="evenodd" d="M6.66683 2.5C6.44581 2.5 6.23385 2.5878 6.07757 2.74408C5.92129 2.90036 5.8335 3.11232 5.8335 3.33334V13.3333C5.8335 13.5543 5.92129 13.7663 6.07757 13.9226C6.23385 14.0789 6.44582 14.1667 6.66683 14.1667H16.6585C16.6599 14.1667 16.6613 14.1667 16.6627 14.1667C16.7724 14.1672 16.8813 14.1461 16.9828 14.1044C17.0844 14.0628 17.1768 14.0015 17.2546 13.9241C17.3324 13.8466 17.3942 13.7546 17.4363 13.6532C17.4785 13.5518 17.5002 13.4431 17.5002 13.3333V5.69018C17.5002 5.69012 17.5002 5.69024 17.5002 5.69018C17.5001 5.46925 17.4122 5.25722 17.256 5.10101L14.8992 2.74426C14.743 2.58801 14.5311 2.5001 14.3102 2.5C14.3101 2.5 14.3102 2.5 14.3102 2.5H6.66683ZM16.0778 1.56575C15.609 1.09693 14.9733 0.833477 14.3103 0.833336H6.66683C6.00379 0.833336 5.3679 1.09673 4.89906 1.56557C4.43022 2.03441 4.16683 2.67029 4.16683 3.33334V13.3333C4.16683 13.9964 4.43022 14.6323 4.89906 15.1011C5.3679 15.5699 6.00379 15.8333 6.66683 15.8333H16.6566C16.9852 15.8347 17.3108 15.7712 17.6149 15.6466C17.9196 15.5217 18.1967 15.3378 18.4302 15.1055C18.6637 14.8732 18.8489 14.5971 18.9753 14.2929C19.1018 13.9888 19.1668 13.6627 19.1668 13.3333V5.68982C19.1667 5.02684 18.9032 4.39106 18.4343 3.92232L16.0778 1.56575C16.0778 1.56578 16.0777 1.56572 16.0778 1.56575Z" fill="black"/>
</svg>
