<svg width="20" height="19" viewBox="0 0 20 19" fill="none" xmlns="http://www.w3.org/2000/svg">
<g filter="url(#filter0_d_25007_496)">
<path fill-rule="evenodd" clip-rule="evenodd" d="M4.1665 2.33333C3.94549 2.33333 3.73353 2.42113 3.57725 2.57741C3.42097 2.73369 3.33317 2.94565 3.33317 3.16666V14.8333C3.33317 15.0543 3.42097 15.2663 3.57725 15.4226C3.73353 15.5789 3.94549 15.6667 4.1665 15.6667H15.8332C16.0542 15.6667 16.2661 15.5789 16.4224 15.4226C16.5787 15.2663 16.6665 15.0543 16.6665 14.8333V6.34029C16.6621 6.12227 16.5724 5.91458 16.4166 5.76187C16.4146 5.75989 16.4126 5.75791 16.4106 5.75592L13.2439 2.58925C13.2419 2.58726 13.2399 2.58526 13.238 2.58325C13.0853 2.42741 12.8776 2.33772 12.6596 2.33333H4.1665ZM2.39874 1.3989C2.86758 0.930056 3.50346 0.666664 4.1665 0.666664H12.6665C12.6705 0.666664 12.6744 0.666692 12.6784 0.666749C13.3363 0.676119 13.9639 0.944463 14.4252 1.41347L17.5864 4.57472C18.0554 5.03599 18.3237 5.66359 18.3331 6.32146C18.3331 6.32429 18.3332 6.32712 18.3332 6.32995L18.3332 6.33333V14.8333C18.3332 15.4964 18.0698 16.1323 17.6009 16.6011C17.1321 17.0699 16.4962 17.3333 15.8332 17.3333H4.1665C3.50346 17.3333 2.86758 17.0699 2.39874 16.6011C1.9299 16.1323 1.6665 15.4964 1.6665 14.8333V3.16666C1.6665 2.50362 1.9299 1.86774 2.39874 1.3989Z" fill="white"/>
<path fill-rule="evenodd" clip-rule="evenodd" d="M5.48799 9.48815C5.80055 9.17559 6.22448 9 6.6665 9H13.3332C13.7752 9 14.1991 9.17559 14.5117 9.48815C14.8242 9.80072 14.9998 10.2246 14.9998 10.6667V16.5C14.9998 16.9602 14.6267 17.3333 14.1665 17.3333C13.7063 17.3333 13.3332 16.9602 13.3332 16.5V10.6667H6.6665L6.6665 16.5C6.6665 16.9602 6.29341 17.3333 5.83317 17.3333C5.37293 17.3333 4.99984 16.9602 4.99984 16.5V10.6667C4.99984 10.2246 5.17543 9.80071 5.48799 9.48815Z" fill="white"/>
<path fill-rule="evenodd" clip-rule="evenodd" d="M5.83317 0.666664C6.29341 0.666664 6.6665 1.03976 6.6665 1.5V4.83333H12.4998C12.9601 4.83333 13.3332 5.20643 13.3332 5.66666C13.3332 6.1269 12.9601 6.5 12.4998 6.5H6.6665C6.22448 6.5 5.80055 6.3244 5.48799 6.01184C5.17543 5.69928 4.99984 5.27536 4.99984 4.83333V1.5C4.99984 1.03976 5.37293 0.666664 5.83317 0.666664Z" fill="white"/>
</g>
<defs>
<filter id="filter0_d_25007_496" x="-2.3335" y="0.666664" width="24.6665" height="24.6667" filterUnits="userSpaceOnUse" color-interpolation-filters="sRGB">
<feFlood flood-opacity="0" result="BackgroundImageFix"/>
<feColorMatrix in="SourceAlpha" type="matrix" values="0 0 0 0 0 0 0 0 0 0 0 0 0 0 0 0 0 0 127 0" result="hardAlpha"/>
<feOffset dy="4"/>
<feGaussianBlur stdDeviation="2"/>
<feComposite in2="hardAlpha" operator="out"/>
<feColorMatrix type="matrix" values="0 0 0 0 0 0 0 0 0 0 0 0 0 0 0 0 0 0 0.25 0"/>
<feBlend mode="normal" in2="BackgroundImageFix" result="effect1_dropShadow_25007_496"/>
<feBlend mode="normal" in="SourceGraphic" in2="effect1_dropShadow_25007_496" result="shape"/>
</filter>
</defs>
</svg>
