<svg width="18" height="20" viewBox="0 0 18 20" fill="none" xmlns="http://www.w3.org/2000/svg">
<path fill-rule="evenodd" clip-rule="evenodd" d="M7.04874 1.56556C7.51758 1.09672 8.15347 0.833332 8.81651 0.833332H9.18318C9.84622 0.833332 10.4821 1.09672 10.9509 1.56556C11.4198 2.03441 11.6832 2.67029 11.6832 3.33333L11.6832 3.48248C11.6832 3.48271 11.6832 3.48224 11.6832 3.48248C11.6834 3.62837 11.722 3.77234 11.795 3.89866C11.8682 4.02518 11.9733 4.13024 12.0998 4.20331C12.1006 4.20373 12.1013 4.20415 12.102 4.20458L12.4582 4.41164C12.4585 4.41181 12.4588 4.41199 12.4591 4.41216C12.5855 4.48496 12.7289 4.52329 12.8748 4.52329C13.0211 4.52329 13.1648 4.48478 13.2915 4.41164C13.2996 4.40697 13.3078 4.40244 13.316 4.39804L13.43 4.33724C14.0009 4.01254 14.6769 3.92544 15.3118 4.09521C15.9516 4.26629 16.4973 4.68424 16.8293 5.25732L17.0134 5.57527C17.3443 6.14894 17.434 6.83047 17.263 7.47027C17.0925 8.10778 16.6769 8.65193 16.107 8.98421L15.9869 9.05624C15.9829 9.05865 15.9789 9.06102 15.9748 9.06336C15.8477 9.13678 15.7422 9.2425 15.669 9.36981C15.5958 9.49712 15.5576 9.64151 15.5582 9.78836C15.5582 9.78946 15.5582 9.79056 15.5582 9.79166V10.2083C15.5582 10.2094 15.5582 10.2105 15.5582 10.2116C15.5576 10.3585 15.5958 10.5029 15.669 10.6302C15.7402 10.7541 15.8421 10.8576 15.9648 10.9308L16.0753 10.9897C16.0839 10.9943 16.0924 10.999 16.1009 11.0039C16.6739 11.3358 17.0919 11.8816 17.263 12.5214C17.4337 13.1598 17.3447 13.8397 17.0155 14.4126L16.834 14.7344C16.8324 14.7372 16.8309 14.7399 16.8293 14.7427C16.4973 15.3158 15.9516 15.7337 15.3118 15.9048C14.6769 16.0746 14.0009 15.9875 13.43 15.6628L13.316 15.602C13.3078 15.5976 13.2996 15.593 13.2915 15.5884C13.1648 15.5152 13.0211 15.4767 12.8748 15.4767C12.7289 15.4767 12.5855 15.515 12.4591 15.5878C12.4588 15.588 12.4585 15.5882 12.4582 15.5884L12.1011 15.796L12.0998 15.7967C11.9733 15.8698 11.8682 15.9748 11.795 16.1013C11.722 16.2277 11.6834 16.3709 11.6832 16.5168C11.6832 16.5171 11.6832 16.5166 11.6832 16.5168V16.6667C11.6832 17.3297 11.4198 17.9656 10.9509 18.4344C10.4821 18.9033 9.84622 19.1667 9.18318 19.1667H8.81651C8.15347 19.1667 7.51758 18.9033 7.04874 18.4344C6.5799 17.9656 6.31651 17.3297 6.31651 16.6667L6.31651 16.5175C6.31651 16.5174 6.31651 16.5177 6.31651 16.5175C6.31629 16.3715 6.27771 16.2277 6.20465 16.1013C6.13152 15.9748 6.0264 15.8698 5.89984 15.7967C5.89911 15.7963 5.89838 15.7958 5.89766 15.7954L5.54151 15.5884C5.54121 15.5882 5.54091 15.588 5.54062 15.5878C5.41415 15.515 5.27078 15.4767 5.12484 15.4767C4.97856 15.4767 4.83486 15.5152 4.70817 15.5884C4.70008 15.593 4.69191 15.5976 4.68366 15.602L4.56965 15.6628C3.99875 15.9875 3.32278 16.0746 2.68791 15.9048C2.04811 15.7337 1.50234 15.3158 1.1704 14.7427L0.986331 14.4247C0.655409 13.8511 0.565635 13.1695 0.736716 12.5297C0.907189 11.8922 1.32279 11.348 1.89274 11.0158L2.01276 10.9438C2.01677 10.9413 2.0208 10.939 2.02485 10.9366C2.15202 10.8632 2.25753 10.7575 2.3307 10.6302C2.40387 10.5029 2.4421 10.3585 2.44151 10.2116C2.44151 10.2105 2.44151 10.2094 2.44151 10.2083V9.78627C2.44027 9.64157 2.40137 9.49967 2.32863 9.37454C2.25553 9.24881 2.1508 9.14441 2.02486 9.07169C2.00936 9.06275 1.99415 9.0533 1.97926 9.04337L1.8739 8.97313C1.31363 8.63992 0.905305 8.10074 0.736716 7.47027C0.565635 6.83047 0.655409 6.14894 0.986331 5.57527L1.1704 5.25732C1.50234 4.68424 2.04811 4.26629 2.68791 4.09521C3.32278 3.92544 3.99876 4.01254 4.56966 4.33724L4.68366 4.39804C4.69191 4.40244 4.70008 4.40697 4.70817 4.41164C4.83486 4.48478 4.97856 4.52329 5.12484 4.52329C5.27078 4.52329 5.41415 4.48496 5.54062 4.41216C5.54091 4.41199 5.54121 4.41182 5.54151 4.41164L5.89766 4.20458C5.89838 4.20415 5.89911 4.20373 5.89984 4.20331C6.0264 4.13024 6.13152 4.02518 6.20465 3.89866C6.27771 3.77226 6.31629 3.62888 6.31651 3.48288C6.31651 3.48274 6.31651 3.48301 6.31651 3.48288V3.33333C6.31651 2.67029 6.5799 2.03441 7.04874 1.56556ZM8.81651 2.5C8.59549 2.5 8.38353 2.5878 8.22725 2.74408C8.07097 2.90036 7.98317 3.11232 7.98317 3.33333L7.98317 3.48419C7.98272 3.92259 7.867 4.35317 7.6476 4.73273C7.42843 5.1119 7.1135 5.42683 6.73436 5.646C6.73397 5.64623 6.73357 5.64646 6.73317 5.64669L6.37703 5.85375C6.3763 5.85418 6.37557 5.8546 6.37484 5.85502C5.99479 6.07444 5.56368 6.18996 5.12484 6.18996C4.69114 6.18996 4.265 6.07713 3.88823 5.8627L3.77435 5.80196C3.7662 5.79761 3.75812 5.79313 3.75011 5.78851C3.55889 5.6782 3.33171 5.64828 3.11845 5.7053C2.90524 5.76232 2.72335 5.90158 2.6127 6.09253C2.61267 6.09258 2.61272 6.09248 2.6127 6.09253L2.43002 6.40806C2.42993 6.40822 2.43011 6.4079 2.43002 6.40806C2.31993 6.59919 2.28983 6.82664 2.34681 7.03973C2.40384 7.25299 2.54316 7.43491 2.73418 7.54556C2.74933 7.55433 2.7642 7.56358 2.77876 7.57329L2.88367 7.64323C3.25015 7.86062 3.55514 8.16818 3.76947 8.53684C3.98876 8.91402 4.10553 9.34202 4.10816 9.7783C4.10817 9.77998 4.10817 9.78165 4.10817 9.78333V10.2069C4.1096 10.6468 3.99493 11.0792 3.77572 11.4607C3.55749 11.8404 3.24336 12.1561 2.86483 12.3762L2.74525 12.4479C2.74158 12.4501 2.73789 12.4523 2.73418 12.4544C2.54316 12.5651 2.40384 12.747 2.34681 12.9603C2.28984 13.1733 2.31966 13.4003 2.42972 13.5914C2.42982 13.5916 2.42962 13.5912 2.42972 13.5914L2.61261 13.9073C2.61264 13.9074 2.61258 13.9073 2.61261 13.9073C2.72327 14.0983 2.90524 14.2377 3.11845 14.2947C3.33171 14.3517 3.55889 14.3218 3.75011 14.2115C3.75812 14.2069 3.7662 14.2024 3.77435 14.198L3.88824 14.1373C4.265 13.9229 4.69115 13.81 5.12484 13.81C5.56368 13.81 5.99479 13.9256 6.37484 14.145L6.37591 14.1456L6.73317 14.3533C6.7336 14.3536 6.73402 14.3538 6.73444 14.354C7.11355 14.5732 7.42844 14.8881 7.6476 15.2673C7.867 15.6468 7.98272 16.0774 7.98317 16.5158L7.98317 16.6667C7.98317 16.8877 8.07097 17.0996 8.22725 17.2559C8.38353 17.4122 8.59549 17.5 8.81651 17.5H9.18318C9.40419 17.5 9.61615 17.4122 9.77243 17.2559C9.92871 17.0996 10.0165 16.8877 10.0165 16.6667V16.5158C10.017 16.0774 10.1327 15.6468 10.3521 15.2673C10.5713 14.8881 10.8862 14.5732 11.2653 14.354C11.2657 14.3538 11.2661 14.3535 11.2665 14.3533L11.6227 14.1462C11.6232 14.1459 11.6237 14.1456 11.6243 14.1453C12.0043 13.9259 12.436 13.81 12.8748 13.81C13.3085 13.81 13.7347 13.9229 14.1115 14.1373L14.2253 14.198C14.2335 14.2024 14.2416 14.2069 14.2496 14.2115C14.4408 14.3218 14.668 14.3517 14.8812 14.2947C15.0932 14.238 15.2742 14.1 15.3851 13.9108L15.5657 13.5906C15.567 13.5882 15.5683 13.5859 15.5697 13.5836C15.68 13.3924 15.7099 13.1652 15.6529 12.9519C15.5969 12.7426 15.4616 12.5634 15.2759 12.4522L15.166 12.3936C15.1578 12.3892 15.1496 12.3847 15.1415 12.38C14.76 12.1598 14.4435 11.8426 14.224 11.4607C14.0048 11.0793 13.8901 10.6469 13.8915 10.207V9.79298C13.8901 9.35314 14.0048 8.92071 14.224 8.53934C14.4422 8.15962 14.7563 7.84394 15.1348 7.62384L15.2544 7.55209C15.2581 7.54988 15.2618 7.54771 15.2655 7.54556C15.4565 7.43492 15.5958 7.25299 15.6529 7.03973C15.7099 6.82657 15.68 6.59951 15.5698 6.40835C15.5698 6.40825 15.5699 6.40844 15.5698 6.40835L15.3871 6.09268C15.387 6.09263 15.3871 6.09272 15.3871 6.09268C15.2764 5.90173 15.0944 5.76232 14.8812 5.7053C14.668 5.64828 14.4408 5.6782 14.2496 5.78851C14.2416 5.79313 14.2335 5.79761 14.2253 5.80196L14.1114 5.8627C13.7347 6.07713 13.3085 6.18996 12.8748 6.18996C12.436 6.18996 12.0049 6.07444 11.6248 5.85502C11.6241 5.8546 11.6234 5.85418 11.6227 5.85375L11.2665 5.64669C11.2661 5.64647 11.2658 5.64626 11.2654 5.64605C10.8862 5.42687 10.5713 5.11193 10.3521 4.73273C10.1327 4.35317 10.017 3.92259 10.0165 3.48419V3.33333C10.0165 3.11232 9.92871 2.90036 9.77243 2.74408C9.61615 2.5878 9.40419 2.5 9.18318 2.5H8.81651Z" fill="#CACACA"/>
<path fill-rule="evenodd" clip-rule="evenodd" d="M8.99984 8.33333C8.07936 8.33333 7.33317 9.07952 7.33317 10C7.33317 10.9205 8.07936 11.6667 8.99984 11.6667C9.92031 11.6667 10.6665 10.9205 10.6665 10C10.6665 9.07952 9.92031 8.33333 8.99984 8.33333ZM5.6665 10C5.6665 8.15905 7.15889 6.66666 8.99984 6.66666C10.8408 6.66666 12.3332 8.15905 12.3332 10C12.3332 11.8409 10.8408 13.3333 8.99984 13.3333C7.15889 13.3333 5.6665 11.8409 5.6665 10Z" fill="#CACACA"/>
</svg>
