<svg width="21" height="20" viewBox="0 0 21 20" fill="none" xmlns="http://www.w3.org/2000/svg">
<path fill-rule="evenodd" clip-rule="evenodd" d="M1.87484 12C2.40411 12 2.83317 12.4477 2.83317 13V17C2.83317 17.2652 2.93414 17.5196 3.11386 17.7071C3.29358 17.8946 3.53734 18 3.7915 18H17.2082C17.4623 18 17.7061 17.8946 17.8858 17.7071C18.0655 17.5196 18.1665 17.2652 18.1665 17V13C18.1665 12.4477 18.5956 12 19.1248 12C19.6541 12 20.0832 12.4477 20.0832 13V17C20.0832 17.7957 19.7803 18.5587 19.2411 19.1213C18.7019 19.6839 17.9707 20 17.2082 20H3.7915C3.02901 20 2.29774 19.6839 1.75857 19.1213C1.2194 18.5587 0.916504 17.7956 0.916504 17V13C0.916504 12.4477 1.34556 12 1.87484 12Z" fill="#14161B"/>
<path fill-rule="evenodd" clip-rule="evenodd" d="M9.82219 0.292893C10.1964 -0.0976311 10.8032 -0.0976311 11.1775 0.292893L15.9691 5.29289C16.3434 5.68342 16.3434 6.31658 15.9691 6.70711C15.5949 7.09763 14.9881 7.09763 14.6139 6.70711L10.4998 2.41421L6.38581 6.70711C6.01156 7.09763 5.40478 7.09763 5.03053 6.70711C4.65627 6.31658 4.65627 5.68342 5.03053 5.29289L9.82219 0.292893Z" fill="#14161B"/>
<path fill-rule="evenodd" clip-rule="evenodd" d="M10.4998 0C11.0291 0 11.4582 0.447715 11.4582 1V13C11.4582 13.5523 11.0291 14 10.4998 14C9.97056 14 9.5415 13.5523 9.5415 13V1C9.5415 0.447715 9.97056 0 10.4998 0Z" fill="#14161B"/>
</svg>
