<svg width="23" height="16" viewBox="0 0 23 16" fill="none" xmlns="http://www.w3.org/2000/svg">
<path fill-rule="evenodd" clip-rule="evenodd" d="M1.37868 0.87868C1.94129 0.31607 2.70435 0 3.5 0H19.5C20.2956 0 21.0587 0.31607 21.6213 0.87868C22.1839 1.44129 22.5 2.20435 22.5 3V5C22.5 5.55228 22.0523 6 21.5 6C20.9696 6 20.4609 6.21071 20.0858 6.58579C19.7107 6.96086 19.5 7.46957 19.5 8C19.5 8.53043 19.7107 9.03914 20.0858 9.41421C20.4609 9.78929 20.9696 10 21.5 10C22.0523 10 22.5 10.4477 22.5 11V13C22.5 13.7957 22.1839 14.5587 21.6213 15.1213C21.0587 15.6839 20.2957 16 19.5 16H3.5C2.70435 16 1.94129 15.6839 1.37868 15.1213C0.81607 14.5587 0.5 13.7956 0.5 13V11C0.5 10.4477 0.947715 10 1.5 10C2.03043 10 2.53914 9.78929 2.91421 9.41421C3.28929 9.03914 3.5 8.53043 3.5 8C3.5 7.46957 3.28929 6.96086 2.91421 6.58579C2.53914 6.21071 2.03043 6 1.5 6C0.947715 6 0.5 5.55228 0.5 5V3C0.5 2.20435 0.81607 1.44129 1.37868 0.87868ZM3.5 2C3.23478 2 2.98043 2.10536 2.79289 2.29289C2.60536 2.48043 2.5 2.73478 2.5 3V4.12701C3.18603 4.30416 3.81889 4.66203 4.32843 5.17157C5.07857 5.92172 5.5 6.93913 5.5 8C5.5 9.06087 5.07857 10.0783 4.32843 10.8284C3.81889 11.338 3.18603 11.6958 2.5 11.873V13C2.5 13.2652 2.60536 13.5196 2.79289 13.7071C2.98043 13.8946 3.23478 14 3.5 14H19.5C19.7652 14 20.0196 13.8946 20.2071 13.7071C20.3946 13.5196 20.5 13.2652 20.5 13V11.873C19.814 11.6958 19.1811 11.338 18.6716 10.8284C17.9214 10.0783 17.5 9.06087 17.5 8C17.5 6.93913 17.9214 5.92172 18.6716 5.17157C19.1811 4.66203 19.814 4.30416 20.5 4.12701V3C20.5 2.73478 20.3946 2.48043 20.2071 2.29289C20.0196 2.10536 19.7652 2 19.5 2H3.5Z" fill="#EFF2F7"/>
<path fill-rule="evenodd" clip-rule="evenodd" d="M12.5 0C13.0523 0 13.5 0.447715 13.5 1V3C13.5 3.55228 13.0523 4 12.5 4C11.9477 4 11.5 3.55228 11.5 3V1C11.5 0.447715 11.9477 0 12.5 0Z" fill="#EFF2F7"/>
<path fill-rule="evenodd" clip-rule="evenodd" d="M12.5 12C13.0523 12 13.5 12.4477 13.5 13V15C13.5 15.5523 13.0523 16 12.5 16C11.9477 16 11.5 15.5523 11.5 15V13C11.5 12.4477 11.9477 12 12.5 12Z" fill="#EFF2F7"/>
<path fill-rule="evenodd" clip-rule="evenodd" d="M12.5 6C13.0523 6 13.5 6.44772 13.5 7V9C13.5 9.55228 13.0523 10 12.5 10C11.9477 10 11.5 9.55228 11.5 9V7C11.5 6.44772 11.9477 6 12.5 6Z" fill="#EFF2F7"/>
</svg>
