<svg width="21" height="20" viewBox="0 0 21 20" fill="none" xmlns="http://www.w3.org/2000/svg">
<path fill-rule="evenodd" clip-rule="evenodd" d="M2.5 2V9H7.5V2H2.5ZM7.50125 8.99995C7.50128 8.99995 7.50131 8.99994 7.50125 8.99995V8.99995ZM0.5 2C0.5 0.89543 1.39543 0 2.5 0H7.5C8.60457 0 9.5 0.89543 9.5 2V9C9.5 10.1046 8.60457 11 7.5 11H2.5C1.39543 11 0.5 10.1046 0.5 9V2Z" fill="#EFF2F7"/>
<path fill-rule="evenodd" clip-rule="evenodd" d="M13.5 2V5H18.5V2H13.5ZM13.4988 4.99995C13.4987 4.99995 13.4988 4.99995 13.4988 4.99995V4.99995ZM11.5 2C11.5 0.89543 12.3954 0 13.5 0H18.5C19.6046 0 20.5 0.89543 20.5 2V5C20.5 6.10457 19.6046 7 18.5 7H13.5C12.3954 7 11.5 6.10457 11.5 5V2Z" fill="#EFF2F7"/>
<path fill-rule="evenodd" clip-rule="evenodd" d="M13.5 11V18H18.5V11H13.5ZM18.5012 18C18.5013 17.9999 18.5013 17.9999 18.5012 18V18ZM11.5 11C11.5 9.89543 12.3954 9 13.5 9H18.5C19.6046 9 20.5 9.89543 20.5 11V18C20.5 19.1046 19.6046 20 18.5 20H13.5C12.3954 20 11.5 19.1046 11.5 18V11Z" fill="#EFF2F7"/>
<path fill-rule="evenodd" clip-rule="evenodd" d="M2.5 15V18H7.5V15H2.5ZM2.49879 18C2.49873 17.9999 2.49876 17.9999 2.49879 18V18ZM0.5 15C0.5 13.8954 1.39543 13 2.5 13H7.5C8.60457 13 9.5 13.8954 9.5 15V18C9.5 19.1046 8.60457 20 7.5 20H2.5C1.39543 20 0.5 19.1046 0.5 18V15Z" fill="#EFF2F7"/>
</svg>
