<svg width="23" height="22" viewBox="0 0 23 22" fill="none" xmlns="http://www.w3.org/2000/svg">
<path fill-rule="evenodd" clip-rule="evenodd" d="M16.3903 12.3359C16.7189 12.1167 17.105 11.9998 17.5 11.9998C17.895 11.9998 18.2811 12.1167 18.6097 12.3359L21.61 14.3361C21.8838 14.5188 22.1083 14.7662 22.2636 15.0565C22.4188 15.3467 22.5 15.6708 22.5 15.9999C22.5 15.9999 22.5 16 22.5 15.9999V19.9999C22.5 20.5303 22.2893 21.039 21.9142 21.4141C21.5391 21.7892 21.0304 21.9999 20.5 21.9999H14.5C13.9696 21.9999 13.4609 21.7892 13.0858 21.4141C12.7107 21.039 12.5 20.5303 12.5 19.9999V16.0001C12.5 16 12.5 16.0001 12.5 16.0001C12.5 15.6709 12.5812 15.3467 12.7364 15.0565C12.8917 14.7662 13.1162 14.5188 13.39 14.3361L16.3903 12.3359ZM14.4997 15.9999L14.5 19.9999H20.5V15.9999L17.5 13.9998L14.4997 15.9999Z" fill="#EFF2F7"/>
<path fill-rule="evenodd" clip-rule="evenodd" d="M3.13604 2.63604C4.82387 0.948212 7.11305 0 9.5 0C11.8869 0 14.1761 0.948212 15.864 2.63604C17.5518 4.32387 18.5 6.61305 18.5 9C18.5 9.55228 18.0523 10 17.5 10C16.9477 10 16.5 9.55228 16.5 9C16.5 7.14348 15.7625 5.36301 14.4497 4.05025C13.137 2.7375 11.3565 2 9.5 2C7.64348 2 5.86301 2.7375 4.55025 4.05025C3.2375 5.36301 2.5 7.14348 2.5 9C2.5 11.1593 3.71668 13.4867 5.29774 15.564C6.82754 17.574 8.58318 19.2012 9.50274 19.999C10.0533 20.0005 10.4994 20.447 10.5 20.998C10.5006 21.5503 10.0533 21.9984 9.501 21.999C9.06757 21.9994 8.64574 21.8591 8.299 21.599C8.28067 21.5852 8.26281 21.5709 8.24546 21.5559C7.29028 20.7311 5.38287 18.9781 3.70626 16.7753C2.05282 14.6028 0.5 11.8337 0.5 9C0.5 6.61305 1.44821 4.32387 3.13604 2.63604Z" fill="#EFF2F7"/>
<path fill-rule="evenodd" clip-rule="evenodd" d="M17.5 17C18.0523 17 18.5 17.4477 18.5 18V21C18.5 21.5523 18.0523 22 17.5 22C16.9477 22 16.5 21.5523 16.5 21V18C16.5 17.4477 16.9477 17 17.5 17Z" fill="#EFF2F7"/>
<path fill-rule="evenodd" clip-rule="evenodd" d="M9.5 7C8.39543 7 7.5 7.89543 7.5 9C7.5 10.1046 8.39543 11 9.5 11C10.6046 11 11.5 10.1046 11.5 9C11.5 7.89543 10.6046 7 9.5 7ZM5.5 9C5.5 6.79086 7.29086 5 9.5 5C11.7091 5 13.5 6.79086 13.5 9C13.5 11.2091 11.7091 13 9.5 13C7.29086 13 5.5 11.2091 5.5 9Z" fill="#EFF2F7"/>
</svg>
