<svg width="21" height="22" viewBox="0 0 21 22" fill="none" xmlns="http://www.w3.org/2000/svg">
<path fill-rule="evenodd" clip-rule="evenodd" d="M8.15868 0.87868C8.72129 0.31607 9.48435 0 10.28 0H10.72C11.5157 0 12.2787 0.31607 12.8413 0.87868C13.4039 1.44129 13.72 2.20435 13.72 3L13.72 3.17897C13.72 3.17869 13.72 3.17925 13.72 3.17897C13.7203 3.35405 13.7666 3.52681 13.8542 3.67839C13.942 3.83022 14.0681 3.95629 14.22 4.04397C14.2209 4.04448 14.2218 4.04499 14.2226 4.04549L14.65 4.29397C14.6504 4.29418 14.6507 4.29438 14.6511 4.29459C14.8028 4.38196 14.9749 4.42795 15.15 4.42795C15.3255 4.42795 15.498 4.38174 15.65 4.29397C15.6597 4.28837 15.6695 4.28292 15.6794 4.27765L15.8162 4.20468C16.5013 3.81504 17.3125 3.71053 18.0743 3.91425C18.8421 4.11955 19.497 4.62109 19.8953 5.30879L20.1162 5.69032C20.5133 6.37873 20.6211 7.19657 20.4158 7.96432C20.2112 8.72933 19.7125 9.38232 19.0286 9.78105L18.8845 9.86749C18.8797 9.87038 18.8749 9.87323 18.87 9.87603C18.7174 9.96414 18.5908 10.091 18.503 10.2438C18.4152 10.3966 18.3693 10.5698 18.37 10.746C18.37 10.7474 18.37 10.7487 18.37 10.75V11.25C18.37 11.2513 18.37 11.2526 18.37 11.254C18.3693 11.4302 18.4152 11.6034 18.503 11.7562C18.5885 11.905 18.7107 12.0292 18.858 12.1169L18.9906 12.1876C19.0009 12.1931 19.0111 12.1988 19.0212 12.2047C19.7089 12.603 20.2105 13.2579 20.4158 14.0257C20.6206 14.7917 20.5138 15.6077 20.1188 16.2951L19.901 16.6813C19.8991 16.6846 19.8972 16.6879 19.8953 16.6912C19.497 17.3789 18.8421 17.8805 18.0743 18.0858C17.3125 18.2895 16.5013 18.185 15.8162 17.7953L15.6794 17.7224C15.6695 17.7171 15.6597 17.7116 15.65 17.706C15.498 17.6183 15.3255 17.5721 15.15 17.5721C14.9749 17.5721 14.8028 17.618 14.6511 17.7054C14.6507 17.7056 14.6504 17.7058 14.65 17.706L14.2215 17.9552L14.22 17.956C14.0681 18.0437 13.942 18.1698 13.8542 18.3216C13.7666 18.4732 13.7203 18.6451 13.72 18.8202C13.72 18.8199 13.72 18.8205 13.72 18.8202V19C13.72 19.7957 13.4039 20.5587 12.8413 21.1213C12.2787 21.6839 11.5157 22 10.72 22H10.28C9.48435 22 8.72129 21.6839 8.15868 21.1213C7.59608 20.5587 7.28 19.7957 7.28 19L7.28 18.821C7.28 18.8209 7.28 18.8212 7.28 18.821C7.27974 18.6458 7.23345 18.4733 7.14577 18.3216C7.05801 18.1698 6.93187 18.0437 6.78 17.956C6.77913 17.9555 6.77826 17.955 6.77738 17.9545L6.35 17.706C6.34965 17.7058 6.34929 17.7056 6.34894 17.7054C6.19718 17.618 6.02513 17.5721 5.85 17.5721C5.67447 17.5721 5.50202 17.6183 5.35 17.706C5.34029 17.7116 5.33049 17.7171 5.32059 17.7224L5.18377 17.7953C4.4987 18.185 3.68753 18.2895 2.92568 18.0858C2.15793 17.8805 1.50301 17.3789 1.10468 16.6912L0.883792 16.3097C0.486686 15.6213 0.378957 14.8034 0.584254 14.0357C0.788822 13.2706 1.28754 12.6176 1.97148 12.2189L2.11551 12.1325C2.12032 12.1296 2.12515 12.1268 2.13001 12.124C2.28262 12.0359 2.40923 11.909 2.49703 11.7562C2.58484 11.6034 2.63071 11.4302 2.63001 11.254C2.63001 11.2526 2.63 11.2513 2.63 11.25V10.7435C2.62852 10.5699 2.58184 10.3996 2.49455 10.2495C2.40683 10.0986 2.28116 9.97329 2.13002 9.88604C2.11142 9.8753 2.09317 9.86396 2.0753 9.85205L1.94887 9.76776C1.27655 9.3679 0.786562 8.7209 0.584254 7.96432C0.378957 7.19657 0.486686 6.37873 0.883792 5.69032L1.10468 5.30879C1.50301 4.62109 2.15793 4.11955 2.92568 3.91425C3.68754 3.71053 4.49871 3.81504 5.18379 4.20468L5.32059 4.27765C5.33049 4.28292 5.34029 4.28837 5.35 4.29397C5.50202 4.38174 5.67447 4.42795 5.85 4.42795C6.02513 4.42795 6.19718 4.38196 6.34894 4.29459C6.34929 4.29439 6.34965 4.29418 6.35 4.29397L6.77738 4.04549C6.77826 4.04499 6.77913 4.04448 6.78 4.04397C6.93187 3.95629 7.05801 3.83022 7.14577 3.67839C7.23345 3.52671 7.27974 3.35465 7.28 3.17946C7.28 3.1793 7.28 3.17962 7.28 3.17946V3C7.28 2.20435 7.59608 1.44129 8.15868 0.87868ZM10.28 2C10.0148 2 9.76043 2.10536 9.5729 2.29289C9.38536 2.48043 9.28 2.73478 9.28 3L9.28 3.18103C9.27946 3.70711 9.14059 4.22381 8.87731 4.67928C8.61431 5.13428 8.2364 5.51219 7.78143 5.7752C7.78095 5.77548 7.78048 5.77575 7.78 5.77603L7.35263 6.02451C7.35175 6.02501 7.35088 6.02552 7.35 6.02603C6.89395 6.28933 6.37661 6.42795 5.85 6.42795C5.32957 6.42795 4.8182 6.29256 4.36607 6.03524L4.22942 5.96235C4.21963 5.95713 4.20993 5.95175 4.20033 5.94621C3.97086 5.81384 3.69825 5.77793 3.44233 5.84637C3.18648 5.91478 2.96822 6.08189 2.83543 6.31104C2.8354 6.31109 2.83546 6.31098 2.83543 6.31104L2.61622 6.68968C2.61611 6.68986 2.61633 6.68949 2.61622 6.68968C2.48412 6.91902 2.448 7.19197 2.51637 7.44768C2.5848 7.70359 2.75198 7.9219 2.98122 8.05468C2.99939 8.0652 3.01723 8.0763 3.03471 8.08795L3.1606 8.17188C3.60038 8.43275 3.96636 8.80182 4.22356 9.24421C4.48671 9.69682 4.62683 10.2104 4.62999 10.734C4.63 10.736 4.63 10.738 4.63 10.74V11.2482C4.63171 11.7761 4.49411 12.2951 4.23106 12.7528C3.96919 13.2085 3.59223 13.5873 3.13799 13.8514L2.9945 13.9375C2.99009 13.9401 2.98566 13.9427 2.98122 13.9453C2.75198 14.0781 2.5848 14.2964 2.51637 14.5523C2.448 14.808 2.48378 15.0804 2.61586 15.3097C2.61574 15.3095 2.61598 15.3099 2.61586 15.3097L2.83533 15.6888C2.83529 15.6887 2.83536 15.6888 2.83533 15.6888C2.96811 15.9179 3.18648 16.0852 3.44233 16.1536C3.69825 16.2221 3.97086 16.1862 4.20033 16.0538C4.20993 16.0482 4.21963 16.0429 4.22942 16.0376L4.36608 15.9648C4.8182 15.7074 5.32957 15.572 5.85 15.572C6.37662 15.572 6.89395 15.7107 7.35 15.974L7.35129 15.9747L7.78 16.224C7.78051 16.2243 7.78102 16.2246 7.78152 16.2249C8.23645 16.4879 8.61433 16.8658 8.87731 17.3207C9.14059 17.7762 9.27946 18.2929 9.28 18.819L9.28 19C9.28 19.2652 9.38536 19.5196 9.5729 19.7071C9.76043 19.8946 10.0148 20 10.28 20H10.72C10.9852 20 11.2396 19.8946 11.4271 19.7071C11.6146 19.5196 11.72 19.2652 11.72 19V18.819C11.7205 18.2929 11.8594 17.7762 12.1227 17.3207C12.3857 16.8657 12.7636 16.4878 13.2186 16.2248C13.2191 16.2245 13.2195 16.2242 13.22 16.224L13.6474 15.9755C13.648 15.9751 13.6487 15.9747 13.6493 15.9744C14.1054 15.7111 14.6234 15.572 15.15 15.572C15.6704 15.572 16.1818 15.7074 16.6339 15.9648L16.7706 16.0376C16.7804 16.0429 16.7901 16.0482 16.7997 16.0538C17.0291 16.1862 17.3018 16.2221 17.5577 16.1536C17.8121 16.0856 18.0293 15.92 18.1623 15.6929L18.379 15.3087C18.3806 15.3059 18.3822 15.3031 18.3838 15.3003C18.5162 15.0709 18.5521 14.7982 18.4836 14.5423C18.4165 14.2911 18.2541 14.0761 18.0313 13.9427L17.8994 13.8724C17.8895 13.8671 17.8797 13.8616 17.87 13.856C17.4122 13.5917 17.0324 13.2111 16.7689 12.7528C16.5059 12.2951 16.3683 11.7762 16.37 11.2484V10.7516C16.3683 10.2238 16.5059 9.70485 16.7689 9.24721C17.0308 8.79155 17.4078 8.41273 17.862 8.14862L18.0055 8.06251C18.0099 8.05986 18.0143 8.05725 18.0188 8.05468C18.248 7.9219 18.4152 7.70359 18.4836 7.44768C18.552 7.19188 18.5162 6.91941 18.384 6.69002C18.3839 6.6899 18.3841 6.69013 18.384 6.69002L18.1647 6.31121C18.1646 6.31115 18.1647 6.31127 18.1647 6.31121C18.0319 6.08207 17.8135 5.91478 17.5577 5.84637C17.3018 5.77793 17.0291 5.81384 16.7997 5.94621C16.7901 5.95175 16.7804 5.95713 16.7706 5.96235L16.6339 6.03524C16.1818 6.29256 15.6704 6.42795 15.15 6.42795C14.6234 6.42795 14.1061 6.28933 13.65 6.02603C13.6491 6.02552 13.6483 6.02501 13.6474 6.02451L13.22 5.77603C13.2196 5.77577 13.2191 5.77552 13.2187 5.77526C12.7637 5.51225 12.3857 5.13431 12.1227 4.67928C11.8594 4.22381 11.7205 3.70711 11.72 3.18103V3C11.72 2.73478 11.6146 2.48043 11.4271 2.29289C11.2396 2.10536 10.9852 2 10.72 2H10.28Z" fill="#EFF2F7"/>
<path fill-rule="evenodd" clip-rule="evenodd" d="M10.5 9C9.39543 9 8.5 9.89543 8.5 11C8.5 12.1046 9.39543 13 10.5 13C11.6046 13 12.5 12.1046 12.5 11C12.5 9.89543 11.6046 9 10.5 9ZM6.5 11C6.5 8.79086 8.29086 7 10.5 7C12.7091 7 14.5 8.79086 14.5 11C14.5 13.2091 12.7091 15 10.5 15C8.29086 15 6.5 13.2091 6.5 11Z" fill="#EFF2F7"/>
</svg>
