<svg width="25" height="23" viewBox="0 0 25 23" fill="none" xmlns="http://www.w3.org/2000/svg">
<g filter="url(#filter0_d_25037_1395)">
<path fill-rule="evenodd" clip-rule="evenodd" d="M12.5 2C7.52944 2 3.5 6.02944 3.5 11C3.5 15.9706 7.52944 20 12.5 20C17.4706 20 21.5 15.9706 21.5 11C21.5 6.02944 17.4706 2 12.5 2ZM1.5 11C1.5 4.92487 6.42487 0 12.5 0C18.5751 0 23.5 4.92487 23.5 11C23.5 17.0751 18.5751 22 12.5 22C6.42487 22 1.5 17.0751 1.5 11Z" fill="#EFF2F7"/>
<path fill-rule="evenodd" clip-rule="evenodd" d="M12.7581 7.0244C12.2926 6.94455 11.8138 7.03203 11.4066 7.27135C10.9994 7.51066 10.6901 7.88637 10.5333 8.33193C10.3501 8.85292 9.77914 9.12669 9.25815 8.94342C8.73716 8.76015 8.46339 8.18923 8.64666 7.66824C8.96013 6.77713 9.57886 6.02572 10.3933 5.54708C11.2077 5.06845 12.1652 4.89349 13.0962 5.05319C14.0273 5.21289 14.8717 5.69694 15.4801 6.41961C16.0883 7.14207 16.4212 8.0564 16.42 9.00074C16.4197 10.5312 15.285 11.5419 14.4747 12.0821C14.0391 12.3726 13.6105 12.5861 13.2949 12.7264C13.1356 12.7972 13.0015 12.8509 12.9049 12.8877C12.8565 12.9061 12.8173 12.9204 12.7887 12.9306C12.7744 12.9357 12.7628 12.9397 12.754 12.9427C12.7496 12.9443 12.7459 12.9455 12.7429 12.9465C12.7414 12.947 12.7401 12.9475 12.739 12.9478L12.7375 12.9483C12.7372 12.9484 12.7362 12.9488 12.42 12.0001L12.7362 12.9488C12.2123 13.1234 11.646 12.8403 11.4713 12.3163C11.2969 11.7931 11.5791 11.2275 12.1017 11.0521C12.102 11.052 12.1025 11.0518 12.1032 11.0516C12.1058 11.0507 12.111 11.0489 12.1187 11.0461C12.1341 11.0407 12.1593 11.0315 12.1929 11.0187C12.2603 10.993 12.3606 10.953 12.4826 10.8988C12.7294 10.7891 13.0509 10.6276 13.3653 10.418C14.0549 9.9583 14.42 9.46922 14.42 9.00008L14.42 8.99859C14.4207 8.52627 14.2542 8.06895 13.95 7.70761C13.6459 7.34628 13.2236 7.10425 12.7581 7.0244Z" fill="#EFF2F7"/>
<path fill-rule="evenodd" clip-rule="evenodd" d="M11.5 16C11.5 15.4477 11.9477 15 12.5 15H12.51C13.0623 15 13.51 15.4477 13.51 16C13.51 16.5523 13.0623 17 12.51 17H12.5C11.9477 17 11.5 16.5523 11.5 16Z" fill="#EFF2F7"/>
</g>
<defs>
<filter id="filter0_d_25037_1395" x="-2.5" y="0" width="30" height="30" filterUnits="userSpaceOnUse" color-interpolation-filters="sRGB">
<feFlood flood-opacity="0" result="BackgroundImageFix"/>
<feColorMatrix in="SourceAlpha" type="matrix" values="0 0 0 0 0 0 0 0 0 0 0 0 0 0 0 0 0 0 127 0" result="hardAlpha"/>
<feOffset dy="4"/>
<feGaussianBlur stdDeviation="2"/>
<feComposite in2="hardAlpha" operator="out"/>
<feColorMatrix type="matrix" values="0 0 0 0 0 0 0 0 0 0 0 0 0 0 0 0 0 0 0.25 0"/>
<feBlend mode="normal" in2="BackgroundImageFix" result="effect1_dropShadow_25037_1395"/>
<feBlend mode="normal" in="SourceGraphic" in2="effect1_dropShadow_25037_1395" result="shape"/>
</filter>
</defs>
</svg>
