<svg width="21" height="16" viewBox="0 0 21 16" fill="none" xmlns="http://www.w3.org/2000/svg">
<path fill-rule="evenodd" clip-rule="evenodd" d="M2.5 2V6H6.5V2H2.5ZM0.5 2C0.5 0.89543 1.39543 0 2.5 0H6.5C7.60457 0 8.5 0.89543 8.5 2V6C8.5 7.10457 7.60457 8 6.5 8H2.5C1.39543 8 0.5 7.10457 0.5 6V2Z" fill="#EFF2F7"/>
<path fill-rule="evenodd" clip-rule="evenodd" d="M8.20711 10.2929C8.59763 10.6834 8.59763 11.3166 8.20711 11.7071L4.20711 15.7071C3.81658 16.0976 3.18342 16.0976 2.79289 15.7071L0.792893 13.7071C0.402369 13.3166 0.402369 12.6834 0.792893 12.2929C1.18342 11.9024 1.81658 11.9024 2.20711 12.2929L3.5 13.5858L6.79289 10.2929C7.18342 9.90237 7.81658 9.90237 8.20711 10.2929Z" fill="#EFF2F7"/>
<path fill-rule="evenodd" clip-rule="evenodd" d="M10.5 2C10.5 1.44772 10.9477 1 11.5 1H19.5C20.0523 1 20.5 1.44772 20.5 2C20.5 2.55228 20.0523 3 19.5 3H11.5C10.9477 3 10.5 2.55228 10.5 2Z" fill="#EFF2F7"/>
<path fill-rule="evenodd" clip-rule="evenodd" d="M10.5 8C10.5 7.44772 10.9477 7 11.5 7H19.5C20.0523 7 20.5 7.44772 20.5 8C20.5 8.55228 20.0523 9 19.5 9H11.5C10.9477 9 10.5 8.55228 10.5 8Z" fill="#EFF2F7"/>
<path fill-rule="evenodd" clip-rule="evenodd" d="M10.5 14C10.5 13.4477 10.9477 13 11.5 13H19.5C20.0523 13 20.5 13.4477 20.5 14C20.5 14.5523 20.0523 15 19.5 15H11.5C10.9477 15 10.5 14.5523 10.5 14Z" fill="#EFF2F7"/>
</svg>
