<svg width="12" height="12" viewBox="0 0 12 12" fill="none" xmlns="http://www.w3.org/2000/svg">
<path fill-rule="evenodd" clip-rule="evenodd" d="M4.66667 2.66667C4.66667 2.29848 4.96514 2 5.33333 2H11.3333C11.7015 2 12 2.29848 12 2.66667C12 3.03486 11.7015 3.33333 11.3333 3.33333H5.33333C4.96514 3.33333 4.66667 3.03486 4.66667 2.66667Z" fill="#14161B"/>
<path fill-rule="evenodd" clip-rule="evenodd" d="M0.666667 9.33333C0.666667 8.96514 0.965144 8.66667 1.33333 8.66667H7.33333C7.70152 8.66667 8 8.96514 8 9.33333C8 9.70152 7.70152 10 7.33333 10H1.33333C0.965144 10 0.666667 9.70152 0.666667 9.33333Z" fill="#14161B"/>
<path fill-rule="evenodd" clip-rule="evenodd" d="M9.33333 8C8.59695 8 8 8.59695 8 9.33333C8 10.0697 8.59695 10.6667 9.33333 10.6667C10.0697 10.6667 10.6667 10.0697 10.6667 9.33333C10.6667 8.59695 10.0697 8 9.33333 8ZM6.66667 9.33333C6.66667 7.86057 7.86057 6.66667 9.33333 6.66667C10.8061 6.66667 12 7.86057 12 9.33333C12 10.8061 10.8061 12 9.33333 12C7.86057 12 6.66667 10.8061 6.66667 9.33333Z" fill="#14161B"/>
<path fill-rule="evenodd" clip-rule="evenodd" d="M2.66667 1.33333C1.93029 1.33333 1.33333 1.93029 1.33333 2.66667C1.33333 3.40305 1.93029 4 2.66667 4C3.40305 4 4 3.40305 4 2.66667C4 1.93029 3.40305 1.33333 2.66667 1.33333ZM0 2.66667C0 1.19391 1.19391 0 2.66667 0C4.13943 0 5.33333 1.19391 5.33333 2.66667C5.33333 4.13943 4.13943 5.33333 2.66667 5.33333C1.19391 5.33333 0 4.13943 0 2.66667Z" fill="#14161B"/>
</svg>
