<svg width="16" height="16" viewBox="0 0 16 16" fill="none" xmlns="http://www.w3.org/2000/svg">
<g filter="url(#filter0_d_24994_929)">
<path fill-rule="evenodd" clip-rule="evenodd" d="M7.99984 2.00008C4.68613 2.00008 1.99984 4.68637 1.99984 8.00008C1.99984 11.3138 4.68613 14.0001 7.99984 14.0001C11.3135 14.0001 13.9998 11.3138 13.9998 8.00008C13.9998 4.68637 11.3135 2.00008 7.99984 2.00008ZM0.666504 8.00008C0.666504 3.94999 3.94975 0.666748 7.99984 0.666748C12.0499 0.666748 15.3332 3.94999 15.3332 8.00008C15.3332 12.0502 12.0499 15.3334 7.99984 15.3334C3.94975 15.3334 0.666504 12.0502 0.666504 8.00008Z" fill="#14161B"/>
<path fill-rule="evenodd" clip-rule="evenodd" d="M4.6665 8.00008C4.6665 7.63189 4.96498 7.33341 5.33317 7.33341H10.6665C11.0347 7.33341 11.3332 7.63189 11.3332 8.00008C11.3332 8.36827 11.0347 8.66675 10.6665 8.66675H5.33317C4.96498 8.66675 4.6665 8.36827 4.6665 8.00008Z" fill="#14161B"/>
<path fill-rule="evenodd" clip-rule="evenodd" d="M7.99984 4.66675C8.36803 4.66675 8.6665 4.96522 8.6665 5.33341V10.6667C8.6665 11.0349 8.36803 11.3334 7.99984 11.3334C7.63165 11.3334 7.33317 11.0349 7.33317 10.6667V5.33341C7.33317 4.96522 7.63165 4.66675 7.99984 4.66675Z" fill="#14161B"/>
</g>
<defs>
<filter id="filter0_d_24994_929" x="-3.3335" y="0.666748" width="22.6665" height="22.6667" filterUnits="userSpaceOnUse" color-interpolation-filters="sRGB">
<feFlood flood-opacity="0" result="BackgroundImageFix"/>
<feColorMatrix in="SourceAlpha" type="matrix" values="0 0 0 0 0 0 0 0 0 0 0 0 0 0 0 0 0 0 127 0" result="hardAlpha"/>
<feOffset dy="4"/>
<feGaussianBlur stdDeviation="2"/>
<feComposite in2="hardAlpha" operator="out"/>
<feColorMatrix type="matrix" values="0 0 0 0 0 0 0 0 0 0 0 0 0 0 0 0 0 0 0.25 0"/>
<feBlend mode="normal" in2="BackgroundImageFix" result="effect1_dropShadow_24994_929"/>
<feBlend mode="normal" in="SourceGraphic" in2="effect1_dropShadow_24994_929" result="shape"/>
</filter>
</defs>
</svg>
