<svg width="18" height="20" viewBox="0 0 18 20" fill="none" xmlns="http://www.w3.org/2000/svg">
<path fill-rule="evenodd" clip-rule="evenodd" d="M0.666504 5.00001C0.666504 4.53977 1.0396 4.16668 1.49984 4.16668H16.4998C16.9601 4.16668 17.3332 4.53977 17.3332 5.00001C17.3332 5.46025 16.9601 5.83334 16.4998 5.83334H1.49984C1.0396 5.83334 0.666504 5.46025 0.666504 5.00001Z" fill="#14161B"/>
<path fill-rule="evenodd" clip-rule="evenodd" d="M3.1665 4.16668C3.62674 4.16668 3.99984 4.53977 3.99984 5.00001V16.6667C3.99984 16.8123 4.08105 17.0277 4.27659 17.2233C4.47214 17.4188 4.68753 17.5 4.83317 17.5H13.1665C13.3121 17.5 13.5275 17.4188 13.7231 17.2233C13.9186 17.0277 13.9998 16.8123 13.9998 16.6667V5.00001C13.9998 4.53977 14.3729 4.16668 14.8332 4.16668C15.2934 4.16668 15.6665 4.53977 15.6665 5.00001V16.6667C15.6665 17.3544 15.331 17.9723 14.9016 18.4018C14.4721 18.8312 13.8542 19.1667 13.1665 19.1667H4.83317C4.14548 19.1667 3.52754 18.8312 3.09808 18.4018C2.66863 17.9723 2.33317 17.3544 2.33317 16.6667V5.00001C2.33317 4.53977 2.70627 4.16668 3.1665 4.16668Z" fill="#14161B"/>
<path fill-rule="evenodd" clip-rule="evenodd" d="M6.77659 2.77677C6.58105 2.97231 6.49984 3.1877 6.49984 3.33334V5.00001C6.49984 5.46025 6.12674 5.83334 5.6665 5.83334C5.20627 5.83334 4.83317 5.46025 4.83317 5.00001V3.33334C4.83317 2.64565 5.16863 2.02771 5.59808 1.59825C6.02754 1.1688 6.64548 0.833344 7.33317 0.833344H10.6665C11.3542 0.833344 11.9721 1.1688 12.4016 1.59825C12.831 2.02771 13.1665 2.64565 13.1665 3.33334V5.00001C13.1665 5.46025 12.7934 5.83334 12.3332 5.83334C11.8729 5.83334 11.4998 5.46025 11.4998 5.00001V3.33334C11.4998 3.1877 11.4186 2.97231 11.2231 2.77677C11.0275 2.58122 10.8121 2.50001 10.6665 2.50001H7.33317C7.18753 2.50001 6.97214 2.58122 6.77659 2.77677Z" fill="#14161B"/>
<path fill-rule="evenodd" clip-rule="evenodd" d="M7.33317 8.33334C7.79341 8.33334 8.1665 8.70644 8.1665 9.16668V14.1667C8.1665 14.6269 7.79341 15 7.33317 15C6.87293 15 6.49984 14.6269 6.49984 14.1667V9.16668C6.49984 8.70644 6.87293 8.33334 7.33317 8.33334Z" fill="#14161B"/>
<path fill-rule="evenodd" clip-rule="evenodd" d="M10.6665 8.33334C11.1267 8.33334 11.4998 8.70644 11.4998 9.16668V14.1667C11.4998 14.6269 11.1267 15 10.6665 15C10.2063 15 9.83317 14.6269 9.83317 14.1667V9.16668C9.83317 8.70644 10.2063 8.33334 10.6665 8.33334Z" fill="#14161B"/>
</svg>
