<svg width="16" height="13" viewBox="0 0 16 13" fill="none" xmlns="http://www.w3.org/2000/svg">
<g filter="url(#filter0_d_24994_471)">
<path fill-rule="evenodd" clip-rule="evenodd" d="M12.4716 0.528514C12.7319 0.788864 12.7319 1.21097 12.4716 1.47132L4.47157 9.47132C4.21122 9.73167 3.78911 9.73167 3.52876 9.47132C3.26841 9.21097 3.26841 8.78886 3.52876 8.52851L11.5288 0.528514C11.7891 0.268165 12.2112 0.268165 12.4716 0.528514Z" fill="#034EE8"/>
<path fill-rule="evenodd" clip-rule="evenodd" d="M3.52876 0.528514C3.78911 0.268165 4.21122 0.268165 4.47157 0.528514L12.4716 8.52851C12.7319 8.78886 12.7319 9.21097 12.4716 9.47132C12.2112 9.73167 11.7891 9.73167 11.5288 9.47132L3.52876 1.47132C3.26841 1.21097 3.26841 0.788864 3.52876 0.528514Z" fill="#034EE8"/>
</g>
<defs>
<filter id="filter0_d_24994_471" x="-0.666504" y="0.333252" width="17.3335" height="17.3333" filterUnits="userSpaceOnUse" color-interpolation-filters="sRGB">
<feFlood flood-opacity="0" result="BackgroundImageFix"/>
<feColorMatrix in="SourceAlpha" type="matrix" values="0 0 0 0 0 0 0 0 0 0 0 0 0 0 0 0 0 0 127 0" result="hardAlpha"/>
<feOffset dy="4"/>
<feGaussianBlur stdDeviation="2"/>
<feComposite in2="hardAlpha" operator="out"/>
<feColorMatrix type="matrix" values="0 0 0 0 0 0 0 0 0 0 0 0 0 0 0 0 0 0 0.25 0"/>
<feBlend mode="normal" in2="BackgroundImageFix" result="effect1_dropShadow_24994_471"/>
<feBlend mode="normal" in="SourceGraphic" in2="effect1_dropShadow_24994_471" result="shape"/>
</filter>
</defs>
</svg>
